<svg xmlns="http://www.w3.org/2000/svg" width="17.83" height="18.875" viewBox="0 0 17.83 18.875"><defs><style>.a,.b{fill:#fff;}.a{font-size:8px;font-family:Roboto-Medium, Roboto;font-weight:500;letter-spacing:0.033em;}</style></defs><g transform="translate(-20.985 -112.5)"><text class="a" transform="translate(24.62 126.719)"><tspan x="0" y="0">20</tspan></text><path class="b" d="M15.849,18.875H1.981A1.938,1.938,0,0,1,0,16.988V3.775A1.832,1.832,0,0,1,.578,2.439a2.021,2.021,0,0,1,1.4-.551h.991V0H4.953V1.888h7.925V0h1.981V1.888h.991A1.938,1.938,0,0,1,17.83,3.775V16.988A1.938,1.938,0,0,1,15.849,18.875ZM1.783,6.864v10.3H15.6V6.864Z" transform="translate(20.985 112.5)"/></g></svg>