<svg xmlns="http://www.w3.org/2000/svg" width="16.003" height="17.603" viewBox="0 0 16.003 17.603"><defs><style>.a,.b{fill:#2a56c6;}.a{font-size:8px;font-family:Roboto-Medium, Roboto;font-weight:500;letter-spacing:0.033em;}</style></defs><text class="a" transform="translate(3.262 14.045)"><tspan x="0" y="0">20</tspan></text><path class="b" d="M14.225,17.6H1.778A1.771,1.771,0,0,1,0,15.843V3.521A1.741,1.741,0,0,1,.519,2.274a1.777,1.777,0,0,1,1.259-.514h.889V0H4.445V1.761h7.113V0h1.778V1.761h.889A1.771,1.771,0,0,1,16,3.521V15.843A1.771,1.771,0,0,1,14.225,17.6ZM1.6,6.4V16H14V6.4Z" transform="translate(0 0)"/></svg>