<svg xmlns="http://www.w3.org/2000/svg" width="21.5" height="17.5" viewBox="0 0 21.5 17.5"><defs><style>.a{fill:none;stroke:#fff;stroke-linecap:round;stroke-linejoin:round;stroke-width:1.5px;}</style></defs><g transform="translate(0.75 0.75)"><line class="a" x2="20" transform="translate(0 16)"/><path class="a" d="M5,20V8.2A.2.2,0,0,1,5.2,8H7.8a.2.2,0,0,1,.2.2V20" transform="translate(-2 -4)"/><path class="a" d="M11,20V4.27c0-.15.09-.27.2-.27h2.6c.11,0,.2.12.2.27V20" transform="translate(-2 -4)"/><path class="a" d="M17,20V11.15c0-.08.09-.15.2-.15h2.6c.11,0,.2.07.2.15V20" transform="translate(-2 -4)"/></g></svg>