<svg xmlns="http://www.w3.org/2000/svg" width="24" height="24" viewBox="0 0 24 24"><defs><style>.a,.b{fill:none;}.b{stroke:#fff;stroke-linecap:round;stroke-linejoin:round;stroke-width:1.5px;}</style></defs><rect class="a" width="24" height="24"/><g transform="translate(2 4)"><line class="b" x2="20" transform="translate(0 16)"/><path class="b" d="M5,20V8.2A.2.2,0,0,1,5.2,8H7.8a.2.2,0,0,1,.2.2V20" transform="translate(-2 -4)"/><path class="b" d="M11,20V4.27c0-.15.09-.27.2-.27h2.6c.11,0,.2.12.2.27V20" transform="translate(-2 -4)"/><path class="b" d="M17,20V11.15c0-.08.09-.15.2-.15h2.6c.11,0,.2.07.2.15V20" transform="translate(-2 -4)"/></g></svg>